# xmcd CD database file
#
# Track frame offsets:
#	150
#	18991
#	42574
#	55515
#	78826
#	103062
#	142252
#	159091
#	221421
#	246162
#	276201
#
# Disc length: 4521 seconds
#
# Revision: 0
# Processed by: cddbd v1.4PL0 Copyright (c) Steve Scherf et al.
# Submitted via: CDex 1.50Beta7
#
DISCID=9111a70b
DTITLE=Billy Cobham - Crosswinds/ Shabazz
DYEAR=1974
DGENRE=Jazz
TTITLE0=Spanish Moss - "A Sound Portrait": Spanish
TTITLE1=Spanish Moss - "A Sound Portrait":... 
TTITLE2=Spanish Moss - "A Sound Portrait": Storm
TTITLE3=Spanish Moss - "A Sound Portrait": Flash...
TTITLE4=The Pleasant Pheasant
TTITLE5=Heather
TTITLE6=Crosswind
TTITLE7=Shabazz
TTITLE8=Taurian Matador (Revised)
TTITLE9=Red Baron (Revised)
TTITLE10=Tenth Pinn
EXTD=YEAR: 1974
EXTT0=
EXTT1=
EXTT2=
EXTT3=
EXTT4=
EXTT5=
EXTT6=
EXTT7=
EXTT8=
EXTT9=
EXTT10=
PLAYORDER=
